*******************************************************************************
                 President's Day (2010) DVDRip - RadioResearch
*******************************************************************************

-------------------------------------------------------------------------------
                              General Information
-------------------------------------------------------------------------------
Type.................: Movie



Video Format.........: AVI
Video Bitrate........: 1411
Resolution...........: 720 x 404
Color................: 8 bit
FPS..................: 23.976
Source...............: DVD 16x9
Original Format......: NTSC
Genre................: Horror
IMDb Rating..........: 5.8
Movie Information....: http://www.imdb.com/title/tt1581336/

-------------------------------------------------------------------------------
                               Post Information
-------------------------------------------------------------------------------
Posted by............: RadioResearch
Posted on............: 5/6/2013

-------------------------------------------------------------------------------
                                 Release Notes
-------------------------------------------------------------------------------
SEEDBOX SUPPORTED!!

It's campaign season, and the students of Lincoln High are buzzing about who's 
going to be class president... But when a psycho dressed as Abraham Lincoln is 
hacking up students, the candidates must run...for their lives.  One-by-one, the 
mighty Lincoln Lambs are being slaughtered by the merciless maniac in the 
stovepipe hat.

Everyone is dying for a vote....

Abraham Lincoln, Axe Murderer.  I love it!  Has the look and feel of a schlocky 
'80s slasher movie, but got some decently high ratings.  Check it out and have a 
laugh over your favorite beverage.

Enjoy!
RadioResearch

General
Complete name                            : G:President's Day (2010) DVDRip - 
RadioResearchPRESIDENTS_DAY_{RadioResearch}.avi
Format                                   : AVI
Format/Info                              : Audio Video Interleave
File size                                : 830 MiB
Duration                                 : 1h 22mn
Overall bit rate                         : 1 411 Kbps
Movie name                               : PRESIDENTS_DAY_REGION1.Title6.DVDRip
Writing application                      : Lavf53.32.100
Original source form/Name                : PRESIDENTS_DAY_REGION1

Video
ID                                       : 0
Format                                   : MPEG-4 Visual
Format profile                           : Advanced Simple@L5
Format settings, BVOP                    : 2
Format settings, QPel                    : No
Format settings, GMC                     : No warppoints
Format settings, Matrix                  : Default (H.263)
Muxing mode                              : Packed bitstream
Codec ID                                 : XVID
Codec ID/Hint                            : XviD
Duration                                 : 1h 22mn
Bit rate                                 : 1 272 Kbps
Width                                    : 720 pixels
Height                                   : 404 pixels
Display aspect ratio                     : 16:9
Frame rate                               : 23.976 fps
Color space                              : YUV
Chroma subsampling                       : 4:2:0
Bit depth                                : 8 bits
Scan type                                : Progressive
Compression mode                         : Lossy
Bits/(Pixel*Frame)                       : 0.182
Stream size                              : 748 MiB (90%)
Writing library                          : XviD 64

Audio
ID                                       : 1
Format                                   : AC-3
Format/Info                              : Audio Coding 3
Mode extension                           : CM (complete main)
Format settings, Endianness              : Big
Codec ID                                 : 2000
Duration                                 : 1h 22mn
Bit rate mode                            : Constant
Bit rate                                 : 128 Kbps
Channel(s)                               : 2 channels
Channel positions                        : Front: L R
Sampling rate                            : 48.0 KHz
Bit depth                                : 16 bits
Compression mode                         : Lossy
Stream size                              : 75.2 MiB (9%)
Alignment                                : Aligned on interleaves
Interleave, duration                     : 32 ms (0.77 video frame)

AVI FILE MD5 HASH  57599f8b0fc0388189cbe14a9d659128



-------------------------------------------------------------------------------
Generated with Cool NFO Creator - http://fly.to/coolbeans
-------------------------------------------------------------------------------
